   <svg width="151" height="86" viewBox="0 0 151 86" fill="none" xmlns="http://www.w3.org/2000/svg">
        <path d="M11.4833 56.9004L11.449 71.8322L3.11384 71.8131L3.19381 36.9041L11.2563 36.9226L11.2253 50.4566L11.5151 50.4573C12.1097 48.845 13.0785 47.5859 14.4214 46.6798C15.7758 45.7738 17.4302 45.3231 19.3848 45.3276C21.2257 45.3318 22.827 45.7445 24.1888 46.5659C25.5506 47.3758 26.6048 48.5203 27.3514 49.9992C28.1094 51.4783 28.4804 53.2064 28.4645 55.1836L28.4263 71.8711L20.0911 71.852L20.1255 56.8009C20.1402 55.3464 19.7792 54.2092 19.0425 53.3893C18.3057 52.5694 17.2669 52.158 15.926 52.1549C15.051 52.1529 14.2778 52.3443 13.6065 52.7291C12.9465 53.1026 12.4282 53.6412 12.0516 54.3449C11.6864 55.0486 11.4969 55.9004 11.4833 56.9004ZM41.009 72.3431C39.3386 72.3393 37.8563 72.0575 36.5621 71.4977C35.2793 70.9265 34.2642 70.0719 33.5168 68.9339C32.7808 67.7845 32.4148 66.3461 32.4188 64.6188C32.4221 63.1643 32.6806 61.9376 33.1942 60.9388C33.7079 59.94 34.4143 59.1291 35.3134 58.5061C36.2126 57.8832 37.2478 57.414 38.4189 57.0985C39.5902 56.7716 40.8407 56.5529 42.1705 56.4423C43.6594 56.3093 44.8586 56.17 45.768 56.0244C46.6775 55.8674 47.3371 55.6473 47.7468 55.3642C48.1679 55.0697 48.3791 54.6554 48.3803 54.1213L48.3805 54.0361C48.3825 53.1611 48.083 52.4842 47.4818 52.0056C46.8806 51.5269 46.0686 51.2864 45.0459 51.2841C43.9437 51.2816 43.0567 51.5182 42.3852 51.9939C41.7137 52.4696 41.286 53.1278 41.1023 53.9683L33.4154 53.6779C33.6463 52.0875 34.2348 50.6684 35.1808 49.4206C36.1383 48.1614 37.4474 47.1758 39.1081 46.4637C40.7802 45.7402 42.7867 45.3812 45.1276 45.3865C46.7981 45.3904 48.3374 45.5928 49.7456 45.9937C51.1538 46.3833 52.3797 46.9543 53.4235 47.7067C54.4672 48.4477 55.272 49.3587 55.8377 50.4395C56.4147 51.5204 56.7017 52.754 56.6985 54.1403L56.6577 71.9358L48.8168 71.9178L48.8252 68.2701L48.6207 68.2696C48.1527 69.1549 47.5544 69.9035 46.8257 70.5155C46.1084 71.1275 45.2608 71.5858 44.2828 71.8904C43.3162 72.195 42.2249 72.3459 41.009 72.3431ZM43.5954 66.8945C44.4931 66.8965 45.3003 66.7165 46.0171 66.3545C46.7452 65.9926 47.3259 65.4939 47.7592 64.8585C48.1925 64.2118 48.4101 63.4623 48.412 62.61L48.4177 60.1214C48.1788 60.2458 47.8888 60.3588 47.5476 60.4603C47.2179 60.5618 46.854 60.6576 46.4561 60.7476C46.0581 60.8376 45.6489 60.9162 45.2282 60.9834C44.8076 61.0506 44.4041 61.1122 44.0176 61.1681C43.2332 61.2913 42.5623 61.483 42.0049 61.7431C41.4589 62.0032 41.0376 62.3431 40.7412 62.7629C40.4562 63.1713 40.313 63.6597 40.3117 64.2278C40.3097 65.0915 40.615 65.7513 41.2276 66.2072C41.8516 66.6632 42.6408 66.8923 43.5954 66.8945ZM61.7543 71.9474L61.8343 37.0384L70.1695 37.0575L70.1392 50.2677L70.3097 50.2681C70.6524 49.4734 71.1371 48.7075 71.7638 47.9703C72.4019 47.2331 73.2101 46.6327 74.1884 46.169C75.1781 45.694 76.3605 45.4581 77.7355 45.4612C79.5537 45.4654 81.2514 45.9466 82.8288 46.9047C84.4175 47.8629 85.6982 49.3375 86.6709 51.3283C87.6436 53.3192 88.1265 55.8544 88.1194 58.9339C88.1126 61.8998 87.6353 64.3817 86.6876 66.3795C85.7512 68.3774 84.4864 69.8745 82.8932 70.8709C81.3114 71.8672 79.5545 72.3632 77.6227 72.3588C76.3046 72.3558 75.163 72.1372 74.1981 71.7032C73.2332 71.2692 72.422 70.6991 71.7645 69.9931C71.1184 69.2871 70.6201 68.5302 70.2697 67.7226L70.014 67.722L70.0043 71.9663L61.7543 71.9474ZM69.9491 58.8753C69.9458 60.2843 70.1305 61.512 70.5031 62.5584C70.8871 63.6047 71.4364 64.4185 72.1509 64.9996C72.8769 65.5695 73.7456 65.8556 74.7569 65.8579C75.7797 65.8602 76.6496 65.5781 77.3668 65.0116C78.0841 64.4337 78.6257 63.6224 78.9917 62.5778C79.3691 61.5332 79.5594 60.3064 79.5627 58.8973C79.5659 57.4882 79.3812 56.2662 79.0086 55.2312C78.6473 54.1963 78.1094 53.3939 77.3948 52.8241C76.6915 52.2543 75.8228 51.9682 74.7888 51.9659C73.766 51.9635 72.8961 52.2399 72.1789 52.7951C71.4617 53.3503 70.9088 54.1445 70.52 55.1777C70.1427 56.2109 69.9523 57.4434 69.9491 58.8753ZM92.4574 72.0178L92.5173 45.836L100.853 45.8551L100.793 72.0369L92.4574 72.0178ZM96.7005 42.7945C95.53 42.7918 94.5252 42.4031 93.6861 41.6285C92.847 40.8424 92.4287 39.8983 92.4312 38.796C92.4337 37.7051 92.8563 36.7743 93.699 36.0035C94.5417 35.2213 95.5482 34.8316 96.7187 34.8343C97.9005 34.837 98.9053 35.2313 99.733 36.0173C100.572 36.7919 100.99 37.7247 100.988 38.8156C100.985 39.9179 100.563 40.8601 99.7201 41.6423C98.8888 42.4131 97.8823 42.7972 96.7005 42.7945ZM120.936 45.9011L120.922 52.0375L104.405 51.9996L104.419 45.8633L120.936 45.9011ZM107.894 39.5985L116.229 39.6176L116.174 63.8391C116.172 64.3505 116.251 64.7654 116.409 65.084C116.579 65.3912 116.823 65.6133 117.141 65.7504C117.459 65.8762 117.839 65.9395 118.282 65.9406C118.601 65.9413 118.936 65.9136 119.288 65.8576C119.652 65.7903 119.925 65.7341 120.107 65.6891L121.354 71.709C120.956 71.8217 120.394 71.9625 119.666 72.1312C118.95 72.3001 118.091 72.406 117.091 72.4492C115.137 72.5356 113.461 72.3045 112.065 71.7559C110.679 71.1959 109.619 70.3298 108.883 69.1577C108.158 67.9855 107.809 66.5132 107.836 64.7405L107.894 39.5985ZM147.701 53.9568L140.047 54.1438C139.968 53.5982 139.754 53.1147 139.402 52.6934C139.051 52.2608 138.592 51.9245 138.024 51.6846C137.468 51.4333 136.82 51.3068 136.082 51.3052C135.116 51.3029 134.291 51.4942 133.609 51.879C132.937 52.2639 132.607 52.7858 132.616 53.445C132.604 53.9563 132.807 54.3999 133.227 54.7759C133.658 55.1519 134.424 55.4548 135.526 55.6846L140.569 56.6507C143.182 57.1567 145.123 57.9907 146.393 59.1527C147.675 60.3147 148.319 61.8503 148.326 63.7594C148.31 65.5548 147.773 67.1161 146.713 68.4432C145.664 69.7703 144.23 70.8011 142.41 71.5356C140.59 72.2587 138.51 72.6176 136.169 72.6122C132.431 72.6037 129.483 71.8299 127.328 70.2908C125.184 68.7405 123.961 66.6695 123.66 64.0779L131.894 63.8922C132.073 64.8471 132.543 65.5755 133.303 66.0772C134.064 66.579 135.035 66.8312 136.217 66.8339C137.285 66.8364 138.154 66.6395 138.826 66.2433C139.497 65.8471 139.839 65.3195 139.852 64.6604C139.842 64.0695 139.582 63.5973 139.071 63.2439C138.561 62.879 137.76 62.5931 136.67 62.3861L132.104 61.5063C129.48 61.023 127.527 60.1379 126.246 58.8508C124.965 57.5524 124.332 55.9033 124.348 53.9033C124.341 52.1533 124.81 50.66 125.756 49.4235C126.702 48.1757 128.045 47.2242 129.786 46.5691C131.526 45.914 133.578 45.5892 135.941 45.5946C139.487 45.6027 142.28 46.3534 144.323 47.8468C146.365 49.3287 147.491 51.3654 147.701 53.9568Z" fill="white"/>
        <rect x="1.13331" y="1.30836" width="15" height="15" rx="3.5" transform="rotate(0.131262 1.13331 1.30836)" fill="#18181B" stroke="#27272A"/>
        <rect x="21.1333" y="1.35417" width="15" height="15" rx="3.5" transform="rotate(0.131262 21.1333 1.35417)" fill="#4C1D95" stroke="#6D28D9"/>
        <rect x="41.1332" y="1.40001" width="15" height="15" rx="3.5" transform="rotate(0.131262 41.1332 1.40001)" fill="#5B21B6" stroke="#7C3AED"/>
        <rect x="61.1332" y="1.44582" width="15" height="15" rx="3.5" transform="rotate(0.131262 61.1332 1.44582)" fill="#6D28D9" stroke="#8B5CF6"/>
        <rect x="81.1331" y="1.49165" width="15" height="15" rx="3.5" transform="rotate(0.131262 81.1331 1.49165)" fill="#7C3AED" stroke="#A78BFA"/>
        <rect x="101.133" y="1.53746" width="15" height="15" rx="3.5" transform="rotate(0.131262 101.133 1.53746)" fill="#8B5CF6" stroke="#C4B5FD"/>
    </svg>